<svg xmlns="http://www.w3.org/2000/svg" width="1510" height="316" viewBox="0 0 1510 316">
  <g id="Group_27" data-name="Group 27" transform="translate(-205 -452)">
    <circle id="Ellipse_1" data-name="Ellipse 1" cx="6" cy="6" r="6" transform="translate(683.346 508)" fill="#f1f1f1"/>
    <text id="Scholarships" transform="translate(1224 710.156)" fill="#fffdfd" font-size="26" font-family="Poppins-SemiBold, Poppins" font-weight="600"><tspan x="-85" y="0">Scholarships</tspan></text>
    <path id="Path_438" data-name="Path 438" d="M738.527,553.176a24.215,24.215,0,0,0,23.383-4.119c8.19-6.874,10.758-18.2,12.847-28.682l6.18-31.017L768,498.267c-9.3,6.406-18.818,13.019-25.26,22.3s-9.252,21.947-4.078,31.988" transform="translate(709.5 166)" fill="#e6e6e6"/>
    <path id="Path_439" data-name="Path 439" d="M740.524,592.886c-1.628-11.864-3.3-23.881-2.159-35.872,1.015-10.649,4.264-21.049,10.878-29.579a49.206,49.206,0,0,1,12.625-11.44c1.262-.8,2.424,1.2,1.167,2a46.778,46.778,0,0,0-18.5,22.326c-4.028,10.246-4.675,21.416-3.981,32.3.419,6.582,1.311,13.121,2.206,19.653a1.2,1.2,0,0,1-.808,1.422,1.163,1.163,0,0,1-1.422-.808Z" transform="translate(709.5 166)" fill="#f2f2f2"/>
    <path id="Path_442" data-name="Path 442" d="M752.246,573.85a17.825,17.825,0,0,0,15.531,8.019c7.864-.373,14.418-5.86,20.317-11.07l17.452-15.409L794,554.837c-8.306-.4-16.827-.771-24.738,1.793s-15.208,8.726-16.654,16.915" transform="translate(709.5 166)" fill="#e6e6e6"/>
    <path id="Path_443" data-name="Path 443" d="M735.922,599.706c7.84-13.871,16.932-29.288,33.181-34.216a37.025,37.025,0,0,1,13.956-1.441c1.482.128,1.112,2.412-.367,2.285a34.4,34.4,0,0,0-22.272,5.892c-6.28,4.275-11.17,10.218-15.308,16.519-2.535,3.861-4.806,7.884-7.076,11.9C737.309,601.933,735.188,601.005,735.922,599.706Z" transform="translate(709.5 166)" fill="#f2f2f2"/>
    <path id="Path_2" data-name="Path 2" d="M665.049,344.456A3.675,3.675,0,0,1,663,340.015a1.763,1.763,0,0,0,.08-.408h0a1.843,1.843,0,0,0-3.31-1.221h0a1.766,1.766,0,0,0-.2.362,3.675,3.675,0,0,1-4.441,2.048,1.764,1.764,0,0,0-.408-.08h0a1.843,1.843,0,0,0-1.221,3.31h0a1.765,1.765,0,0,0,.362.2,3.675,3.675,0,0,1,2.047,4.441,1.77,1.77,0,0,0-.08.408h0a1.843,1.843,0,0,0,3.31,1.221h0a1.766,1.766,0,0,0,.2-.362,3.675,3.675,0,0,1,4.441-2.048,1.768,1.768,0,0,0,.407.08h0a1.843,1.843,0,0,0,1.221-3.31h0A1.766,1.766,0,0,0,665.049,344.456Z" transform="translate(731.236 179.38)" fill="#cbcbcb"/>
    <path id="Path_3" data-name="Path 3" d="M735.049,507.456A3.675,3.675,0,0,1,733,503.015a1.763,1.763,0,0,0,.08-.408h0a1.843,1.843,0,0,0-3.31-1.221h0a1.766,1.766,0,0,0-.2.362,3.675,3.675,0,0,1-4.441,2.047,1.77,1.77,0,0,0-.408-.08h0a1.843,1.843,0,0,0-1.221,3.31h0a1.765,1.765,0,0,0,.362.2,3.675,3.675,0,0,1,2.047,4.441,1.766,1.766,0,0,0-.08.408h0a1.843,1.843,0,0,0,3.31,1.222h0a1.762,1.762,0,0,0,.2-.362,3.675,3.675,0,0,1,4.441-2.048,1.767,1.767,0,0,0,.408.08h0a1.843,1.843,0,0,0,1.221-3.31h0a1.769,1.769,0,0,0-.362-.2Z" transform="translate(709.5 166)" fill="#f1f1f1"/>
    <path id="Path_4" data-name="Path 4" d="M368.049,412.456A3.675,3.675,0,0,1,366,408.015a1.763,1.763,0,0,0,.08-.408h0a1.843,1.843,0,0,0-3.31-1.221h0a1.767,1.767,0,0,0-.2.362,3.675,3.675,0,0,1-4.441,2.047,1.766,1.766,0,0,0-.408-.08h0a1.843,1.843,0,0,0-1.221,3.31h0a1.766,1.766,0,0,0,.362.2,3.675,3.675,0,0,1,2.048,4.441,1.767,1.767,0,0,0-.08.408h0a1.843,1.843,0,0,0,3.31,1.221h0a1.765,1.765,0,0,0,.2-.362,3.675,3.675,0,0,1,4.441-2.048,1.767,1.767,0,0,0,.408.08h0a1.843,1.843,0,0,0,1.221-3.31h0a1.767,1.767,0,0,0-.362-.2Z" transform="translate(699.106 185.909)" fill="#f1f1f1"/>
    <circle id="Ellipse_1-2" data-name="Ellipse 1" cx="6" cy="6" r="6" transform="translate(1224.654 508)" fill="#f1f1f1"/>
    <circle id="Ellipse_2" data-name="Ellipse 2" cx="6" cy="6" r="6" transform="translate(1435.488 452)" fill="#125eab"/>
    <circle id="Ellipse_3" data-name="Ellipse 3" cx="6" cy="6" r="6" transform="translate(1078.654 464)" fill="#cbcbcb"/>
    <circle id="Ellipse_12" data-name="Ellipse 12" cx="43.067" cy="43.067" r="43.067" transform="translate(1267.513 662.556)" fill="#2f2e41"/>
    <rect id="Rectangle_10" data-name="Rectangle 10" width="13.084" height="23.442" transform="translate(1290.954 739.423)" fill="#2f2e41"/>
    <rect id="Rectangle_11" data-name="Rectangle 11" width="13.084" height="23.442" transform="translate(1317.122 739.423)" fill="#2f2e41"/>
    <ellipse id="Ellipse_13" data-name="Ellipse 13" cx="10.903" cy="4.089" rx="10.903" ry="4.089" transform="translate(1290.954 759.048)" fill="#2f2e41"/>
    <ellipse id="Ellipse_14" data-name="Ellipse 14" cx="10.903" cy="4.089" rx="10.903" ry="4.089" transform="translate(1317.122 758.503)" fill="#2f2e41"/>
    <ellipse id="Ellipse_15" data-name="Ellipse 15" cx="23.892" cy="7.501" rx="23.892" ry="7.501" transform="translate(1329.488 693.099) rotate(-45.022)" fill="#2f2e41"/>
    <ellipse id="Ellipse_16" data-name="Ellipse 16" cx="23.892" cy="7.501" rx="23.892" ry="7.501" transform="translate(1246.189 737.849) rotate(-55.225)" fill="#2f2e41"/>
    <circle id="Ellipse_17" data-name="Ellipse 17" cx="14.719" cy="14.719" r="14.719" transform="translate(1294.049 684.801)" fill="#fff"/>
    <circle id="Ellipse_18" data-name="Ellipse 18" cx="4.906" cy="4.906" r="4.906" transform="translate(1308.862 689.614)" fill="#3f3d56"/>
    <path id="Path_12" data-name="Path 12" d="M616.915,560.743c1.444,5.2-3.816,10.185-11.748,11.132s-15.533-2.5-16.977-7.7h0l-.005-.018c-1.436-5.2,4.7-7.043,12.631-7.985S615.479,555.541,616.915,560.743Z" transform="translate(709.5 166)" fill="#fff"/>
    <path id="Path_13" data-name="Path 13" d="M586.011,514.276a76.084,76.084,0,0,1-22.222,5.22,2.529,2.529,0,0,1-2.52-1.571l-6.54-16.264a2.5,2.5,0,0,1,1.387-3.252l40.823-16.415a2.5,2.5,0,0,1,3.252,1.387l6.536,16.255a2.506,2.506,0,0,1-.755,2.89A79.185,79.185,0,0,1,586.011,514.276Z" transform="translate(709.5 166)" fill="#125eab"/>
    <path id="Path_14" data-name="Path 14" d="M599.727,483.567l1.093,2.718-18.976,16.63a2.016,2.016,0,0,1-1.279.493l-24.369.562-1-2.5a2.006,2.006,0,0,1,1.109-2.6l40.823-16.415a2.006,2.006,0,0,1,2.6,1.109Z" transform="translate(709.5 166)" opacity="0.2"/>
    <path id="Path_15" data-name="Path 15" d="M579.962,500.02a2.5,2.5,0,0,1-.874.181l-36.416.842a2.5,2.5,0,0,1-1.691-4.392L566.654,474.5a2.525,2.525,0,0,1,1.482-.6l37.678-2.284a2.5,2.5,0,0,1,1.8,4.376l-26.936,23.6a2.5,2.5,0,0,1-.715.438Z" transform="translate(709.5 166)" fill="#125eab"/>
    <path id="Path_16" data-name="Path 16" d="M356.346,212.767l-.928.373-5.409-13.453,28.3-11.379.373.928-27.371,11.006Z" transform="translate(904 464)" fill="#3f3d56"/>
    <circle id="Ellipse_19" data-name="Ellipse 19" cx="2" cy="2" r="2" transform="translate(1258.255 675.881)" fill="#3f3d56"/>
    <path id="Path_17" data-name="Path 17" d="M765.037,437.869A76.087,76.087,0,0,1,747.7,423.016a2.529,2.529,0,0,1-.22-2.961l9.265-14.882a2.5,2.5,0,0,1,3.444-.8l37.352,23.256a2.5,2.5,0,0,1,.8,3.444l-9.26,14.873a2.506,2.506,0,0,1-2.778,1.1,79.185,79.185,0,0,1-21.27-9.172Z" transform="translate(709.5 166)" fill="#125eab"/>
    <path id="Path_18" data-name="Path 18" d="M797.921,430.807l-1.549,2.487-24.626-5.5a2.016,2.016,0,0,1-1.153-.741L755.752,407.72l1.422-2.284a2.006,2.006,0,0,1,2.755-.641l37.352,23.256a2.006,2.006,0,0,1,.641,2.755Z" transform="translate(709.5 166)" opacity="0.2"/>
    <path id="Path_19" data-name="Path 19" d="M772.972,424.57a2.5,2.5,0,0,1-.662-.6l-22.181-28.894a2.5,2.5,0,0,1,2.546-3.958l33.039,7.641a2.526,2.526,0,0,1,1.362.84l24.09,29.061a2.5,2.5,0,0,1-2.47,4.035l-34.949-7.807a2.5,2.5,0,0,1-.776-.318Z" transform="translate(709.5 166)" fill="#125eab"/>
    <path id="Path_20" data-name="Path 20" d="M552.607,109.416l-.849-.529,7.664-12.309L585.314,112.7l-.529.848L559.742,97.955Z" transform="translate(904 464)" fill="#3f3d56"/>
    <circle id="Ellipse_20" data-name="Ellipse 20" cx="2" cy="2" r="2" transform="translate(1453.654 572)" fill="#3f3d56"/>
    <circle id="Ellipse_21" data-name="Ellipse 21" cx="43.067" cy="43.067" r="43.067" transform="translate(1535.661 613.556)" fill="#2f2e41"/>
    <rect id="Rectangle_12" data-name="Rectangle 12" width="13.084" height="23.442" transform="matrix(0.853, -0.521, 0.521, 0.853, 1597.421, 685.781)" fill="#2f2e41"/>
    <rect id="Rectangle_13" data-name="Rectangle 13" width="13.084" height="23.442" transform="matrix(0.853, -0.521, 0.521, 0.853, 1575.093, 699.427)" fill="#2f2e41"/>
    <ellipse id="Ellipse_22" data-name="Ellipse 22" cx="10.903" cy="4.089" rx="10.903" ry="4.089" transform="matrix(0.853, -0.521, 0.521, 0.853, 1600.212, 707.076)" fill="#2f2e41"/>
    <ellipse id="Ellipse_23" data-name="Ellipse 23" cx="10.903" cy="4.089" rx="10.903" ry="4.089" transform="matrix(0.853, -0.521, 0.521, 0.853, 1577.6, 720.256)" fill="#2f2e41"/>
    <ellipse id="Ellipse_24" data-name="Ellipse 24" cx="7.501" cy="23.892" rx="7.501" ry="23.892" transform="translate(1515.429 620.906) rotate(-44.978)" fill="#2f2e41"/>
    <ellipse id="Ellipse_25" data-name="Ellipse 25" cx="7.501" cy="23.892" rx="7.501" ry="23.892" transform="translate(1603.54 658.157) rotate(-34.775)" fill="#2f2e41"/>
    <circle id="Ellipse_26" data-name="Ellipse 26" cx="14.719" cy="14.719" r="14.719" transform="translate(1550.821 629.801)" fill="#fff"/>
    <circle id="Ellipse_27" data-name="Ellipse 27" cx="4.906" cy="4.906" r="4.906" transform="translate(1555.634 634.614)" fill="#3f3d56"/>
    <path id="Path_21" data-name="Path 21" d="M837.085,503.073c-2.791,4.573.928,10.76,8.306,13.818s15.623,1.831,18.414-2.742h0l.01-.016c2.784-4.576-2.623-8-10-11.054S839.869,498.5,837.085,503.073Z" transform="translate(709.5 166)" fill="#fff"/>
    <path id="Path_22" data-name="Path 22" d="M854.777,436.547c3.846-15.487,20.821-24.6,37.915-20.356s27.834,20.24,23.989,35.727-16.6,15.537-33.7,11.292S850.931,452.034,854.777,436.547Z" transform="translate(709.5 166)" fill="#e6e6e6"/>
    <path id="Path_23" data-name="Path 23" d="M1004.5,602h-809a1,1,0,0,1,0-2h809a1,1,0,0,1,0,2Z" transform="translate(709.5 166)" fill="#cbcbcb"/>
    <path id="Path_438-2" data-name="Path 438" d="M778.383,553.176A24.215,24.215,0,0,1,755,549.057c-8.19-6.874-10.758-18.2-12.847-28.682l-6.18-31.017,12.938,8.908c9.3,6.406,18.818,13.019,25.26,22.3s9.252,21.947,4.078,31.988" transform="translate(-306.41 166)" fill="#e6e6e6"/>
    <path id="Path_439-2" data-name="Path 439" d="M761.04,592.886c1.628-11.864,3.3-23.881,2.159-35.872-1.015-10.649-4.264-21.049-10.878-29.579a49.206,49.206,0,0,0-12.625-11.44c-1.262-.8-2.424,1.2-1.167,2a46.778,46.778,0,0,1,18.5,22.326c4.028,10.246,4.675,21.416,3.981,32.3-.419,6.582-1.311,13.121-2.206,19.653a1.2,1.2,0,0,0,.808,1.422,1.163,1.163,0,0,0,1.422-.808Z" transform="translate(-291.064 166)" fill="#f2f2f2"/>
    <path id="Path_442-2" data-name="Path 442" d="M805.547,573.85a17.825,17.825,0,0,1-15.531,8.019c-7.864-.373-14.418-5.86-20.317-11.07l-17.452-15.409,11.55-.553c8.306-.4,16.827-.771,24.738,1.793s15.208,8.726,16.654,16.915" transform="translate(-347.292 166)" fill="#e6e6e6"/>
    <path id="Path_443-2" data-name="Path 443" d="M783.85,599.706c-7.84-13.871-16.932-29.288-33.181-34.216a37.025,37.025,0,0,0-13.956-1.441c-1.482.128-1.112,2.412.367,2.285a34.4,34.4,0,0,1,22.272,5.892c6.28,4.275,11.17,10.218,15.308,16.519,2.535,3.861,4.806,7.884,7.076,11.9C782.463,601.933,784.584,601.005,783.85,599.706Z" transform="translate(-309.272 166)" fill="#f2f2f2"/>
    <path id="Path_2-2" data-name="Path 2" d="M653.859,344.456a3.675,3.675,0,0,0,2.047-4.441,1.763,1.763,0,0,1-.08-.408h0a1.843,1.843,0,0,1,3.31-1.221h0a1.766,1.766,0,0,1,.2.362,3.675,3.675,0,0,0,4.441,2.048,1.764,1.764,0,0,1,.408-.08h0a1.843,1.843,0,0,1,1.221,3.31h0a1.765,1.765,0,0,1-.362.2A3.675,3.675,0,0,0,663,348.671a1.77,1.77,0,0,1,.08.408h0a1.843,1.843,0,0,1-3.31,1.221h0a1.766,1.766,0,0,1-.2-.362,3.675,3.675,0,0,0-4.441-2.048,1.768,1.768,0,0,1-.407.08h0a1.843,1.843,0,0,1-1.221-3.31h0A1.766,1.766,0,0,1,653.859,344.456Z" transform="translate(-108.408 166)" fill="#cbcbcb"/>
    <path id="Path_3-2" data-name="Path 3" d="M723.859,507.456a3.675,3.675,0,0,0,2.047-4.441,1.763,1.763,0,0,1-.08-.408h0a1.843,1.843,0,0,1,3.31-1.221h0a1.766,1.766,0,0,1,.2.362,3.675,3.675,0,0,0,4.441,2.047,1.77,1.77,0,0,1,.408-.08h0a1.843,1.843,0,0,1,1.221,3.31h0a1.765,1.765,0,0,1-.362.2A3.675,3.675,0,0,0,733,511.671a1.766,1.766,0,0,1,.08.408h0a1.843,1.843,0,0,1-3.31,1.222h0a1.762,1.762,0,0,1-.2-.362,3.675,3.675,0,0,0-4.441-2.048,1.767,1.767,0,0,1-.408.08h0a1.843,1.843,0,0,1-1.221-3.31h0a1.769,1.769,0,0,1,.362-.2Z" transform="translate(-248.408 166)" fill="#f1f1f1"/>
    <path id="Path_4-2" data-name="Path 4" d="M356.859,412.456a3.675,3.675,0,0,0,2.048-4.441,1.763,1.763,0,0,1-.08-.408h0a1.843,1.843,0,0,1,3.31-1.221h0a1.767,1.767,0,0,1,.2.362,3.675,3.675,0,0,0,4.441,2.047,1.766,1.766,0,0,1,.408-.08h0a1.843,1.843,0,0,1,1.221,3.31h0a1.766,1.766,0,0,1-.362.2A3.675,3.675,0,0,0,366,416.671a1.767,1.767,0,0,1,.08.408h0a1.843,1.843,0,0,1-3.31,1.221h0a1.765,1.765,0,0,1-.2-.362,3.675,3.675,0,0,0-4.441-2.048,1.767,1.767,0,0,1-.408.08h0a1.843,1.843,0,0,1-1.221-3.31h0a1.767,1.767,0,0,1,.362-.2Z" transform="translate(458.592 197.96)" fill="#f1f1f1"/>
    <circle id="Ellipse_2-2" data-name="Ellipse 2" cx="6" cy="6" r="6" transform="translate(363.346 492)" fill="#125eab"/>
    <circle id="Ellipse_3-2" data-name="Ellipse 3" cx="6" cy="6" r="6" transform="translate(904 492)" fill="#cbcbcb"/>
    <ellipse id="Ellipse_5" data-name="Ellipse 5" cx="10.903" cy="4.089" rx="10.903" ry="4.089" transform="translate(965.536 758.823)" fill="#2f2e41"/>
    <ellipse id="Ellipse_6" data-name="Ellipse 6" cx="10.903" cy="4.089" rx="10.903" ry="4.089" transform="translate(938.73 758.298)" fill="#2f2e41"/>
    <g id="Group_10" data-name="Group 10">
      <path id="Path_6" data-name="Path 6" d="M394.31,584.823a3.66,3.66,0,0,0-3.656,3.656v7.637a3.66,3.66,0,0,0,3.656,3.656h58.83a3.66,3.66,0,0,0,3.656-3.656v-7.637a3.661,3.661,0,0,0-3.656-3.656Z" transform="translate(604.764 166)" fill="#e5e5e5"/>
      <path id="Path_7" data-name="Path 7" d="M428.142,579.737a1.586,1.586,0,0,0-2.166.58L423.79,584.1l-2.142-4.234a1.586,1.586,0,1,0-2.829,1.432l1.667,3.3h-.611V600h8.155V584.6h-.862l1.555-2.694a1.586,1.586,0,0,0-.58-2.166Z" transform="translate(604.764 166)" fill="#125eab"/>
      <g id="Group_3" data-name="Group 3" transform="translate(104.296)">
        <g id="Group_2" data-name="Group 2">
          <circle id="Ellipse_4" data-name="Ellipse 4" cx="43.067" cy="43.067" r="43.067" transform="translate(815.353 662.556)" fill="#2f2e41"/>
          <rect id="Rectangle_8" data-name="Rectangle 8" width="13.084" height="23.442" transform="translate(864.962 739.423)" fill="#2f2e41"/>
          <rect id="Rectangle_9" data-name="Rectangle 9" width="13.084" height="23.442" transform="translate(838.794 739.423)" fill="#2f2e41"/>
          <ellipse id="Ellipse_7" data-name="Ellipse 7" cx="23.892" cy="7.501" rx="23.892" ry="7.501" transform="matrix(-0.707, -0.707, 0.707, -0.707, 828.9, 703.702)" fill="#2f2e41"/>
          <ellipse id="Ellipse_8" data-name="Ellipse 8" cx="7.501" cy="23.892" rx="7.501" ry="23.892" transform="matrix(-0.707, -0.707, 0.707, -0.707, 898.442, 706.706)" fill="#2f2e41"/>
          <circle id="Ellipse_9" data-name="Ellipse 9" cx="14.719" cy="14.719" r="14.719" transform="translate(845.513 684.801)" fill="#fff"/>
          <circle id="Ellipse_10" data-name="Ellipse 10" cx="4.906" cy="4.906" r="4.906" transform="translate(855.326 694.614)" fill="#3f3d56"/>
          <path id="Path_5" data-name="Path 5" d="M343.132,560.743a9.572,9.572,0,1,0,18.835,3.429h0l0-.018c.942-5.2-3.08-7.043-8.283-7.985S344.073,555.541,343.132,560.743Z" transform="translate(505.416 166)" fill="#fff"/>
          <path id="Path_6-2" data-name="Path 6" d="M453.14,584.823a3.66,3.66,0,0,1,3.656,3.656v7.637a3.66,3.66,0,0,1-3.656,3.656H394.31a3.66,3.66,0,0,1-3.656-3.656v-7.637a3.661,3.661,0,0,1,3.656-3.656Z" transform="translate(363.05 166)" fill="#e5e5e5"/>
          <path id="Path_7-2" data-name="Path 7" d="M419.44,579.737a1.586,1.586,0,0,1,2.166.58l2.186,3.787,2.142-4.234a1.586,1.586,0,1,1,2.829,1.432l-1.667,3.3h.611V600h-8.155V584.6h.862L418.86,581.9a1.586,1.586,0,0,1,.58-2.166Z" transform="translate(362.918 166)" fill="#125eab"/>
          <path id="Path_8" data-name="Path 8" d="M351.337,511.375a76.086,76.086,0,0,0,22.565-3.447,2.529,2.529,0,0,0,1.752-2.4V488a2.5,2.5,0,0,0-2.5-2.5h-44a2.5,2.5,0,0,0-2.5,2.5v17.52a2.506,2.506,0,0,0,1.779,2.4,79.184,79.184,0,0,0,22.9,3.456Z" transform="translate(508.192 166)" fill="#125eab"/>
          <path id="Path_9" data-name="Path 9" d="M327.154,488v2.93l23.81,8.35a2.015,2.015,0,0,0,1.37-.02l22.82-8.57V488a2.006,2.006,0,0,0-2-2h-44A2.006,2.006,0,0,0,327.154,488Z" transform="translate(508.192 166)" opacity="0.2"/>
          <path id="Path_10" data-name="Path 10" d="M350.37,495.892a2.5,2.5,0,0,0,.879-.159l34.1-12.8a2.5,2.5,0,0,0-.07-4.706L353.2,467.246a2.525,2.525,0,0,0-1.6-.007l-35.81,11.937a2.5,2.5,0,0,0-.036,4.731l33.795,11.845a2.5,2.5,0,0,0,.827.14Z" transform="translate(509.453 166)" fill="#125eab"/>
          <path id="Path_11" data-name="Path 11" d="M153.654,197h1V182.5h-30.5v1h29.5Z" transform="translate(737.192 464)" fill="#3f3d56"/>
          <circle id="Ellipse_11" data-name="Ellipse 11" cx="2" cy="2" r="2" transform="translate(889.346 660)" fill="#3f3d56"/>
        </g>
      </g>
    </g>
    <circle id="Ellipse_12-2" data-name="Ellipse 12" cx="43.067" cy="43.067" r="43.067" transform="translate(566.353 662.556)" fill="#2f2e41"/>
    <rect id="Rectangle_10-2" data-name="Rectangle 10" width="13.084" height="23.442" transform="translate(615.962 739.423)" fill="#2f2e41"/>
    <rect id="Rectangle_11-2" data-name="Rectangle 11" width="13.084" height="23.442" transform="translate(589.794 739.423)" fill="#2f2e41"/>
    <ellipse id="Ellipse_13-2" data-name="Ellipse 13" cx="10.903" cy="4.089" rx="10.903" ry="4.089" transform="translate(607.24 759.048)" fill="#2f2e41"/>
    <ellipse id="Ellipse_14-2" data-name="Ellipse 14" cx="10.903" cy="4.089" rx="10.903" ry="4.089" transform="translate(581.072 758.503)" fill="#2f2e41"/>
    <ellipse id="Ellipse_15-2" data-name="Ellipse 15" cx="23.892" cy="7.501" rx="23.892" ry="7.501" transform="matrix(-0.707, -0.707, 0.707, -0.707, 579.901, 703.702)" fill="#2f2e41"/>
    <ellipse id="Ellipse_16-2" data-name="Ellipse 16" cx="23.892" cy="7.501" rx="23.892" ry="7.501" transform="translate(661.49 746.404) rotate(-124.775)" fill="#2f2e41"/>
    <circle id="Ellipse_17-2" data-name="Ellipse 17" cx="14.719" cy="14.719" r="14.719" transform="translate(596.513 684.801)" fill="#fff"/>
    <circle id="Ellipse_18-2" data-name="Ellipse 18" cx="4.906" cy="4.906" r="4.906" transform="translate(601.326 689.614)" fill="#3f3d56"/>
    <path id="Path_12-2" data-name="Path 12" d="M588.215,560.743c-1.444,5.2,3.816,10.185,11.748,11.132s15.533-2.5,16.977-7.7h0l.005-.018c1.436-5.2-4.7-7.043-12.631-7.985S589.651,555.541,588.215,560.743Z" transform="translate(5.37 166)" fill="#fff"/>
    <path id="Path_13-2" data-name="Path 13" d="M575.447,514.276a76.084,76.084,0,0,0,22.222,5.22,2.529,2.529,0,0,0,2.52-1.571l6.54-16.264a2.5,2.5,0,0,0-1.387-3.252l-40.823-16.415a2.5,2.5,0,0,0-3.252,1.387l-6.536,16.255a2.506,2.506,0,0,0,.755,2.89A79.185,79.185,0,0,0,575.447,514.276Z" transform="translate(49.042 166)" fill="#125eab"/>
    <path id="Path_14-2" data-name="Path 14" d="M556.142,483.567l-1.093,2.718,18.976,16.63a2.016,2.016,0,0,0,1.279.493l24.369.562,1-2.5a2.006,2.006,0,0,0-1.109-2.6l-40.823-16.415a2.006,2.006,0,0,0-2.6,1.109Z" transform="translate(54.631 166)" opacity="0.2"/>
    <path id="Path_15-2" data-name="Path 15" d="M568.617,500.02a2.5,2.5,0,0,0,.874.181l36.416.842a2.5,2.5,0,0,0,1.691-4.392L581.925,474.5a2.525,2.525,0,0,0-1.482-.6l-37.678-2.284a2.5,2.5,0,0,0-1.8,4.376l26.936,23.6a2.5,2.5,0,0,0,.715.438Z" transform="translate(61.921 166)" fill="#125eab"/>
    <path id="Path_16-2" data-name="Path 16" d="M372.343,212.767l.928.373,5.409-13.453-28.3-11.379-.373.928,27.371,11.006Z" transform="translate(287.311 464)" fill="#3f3d56"/>
    <circle id="Ellipse_19-2" data-name="Ellipse 19" cx="2" cy="2" r="2" transform="translate(657.745 675.881)" fill="#3f3d56"/>
    <path id="Path_17-2" data-name="Path 17" d="M780.792,437.869a76.087,76.087,0,0,0,17.333-14.853,2.529,2.529,0,0,0,.22-2.961l-9.265-14.882a2.5,2.5,0,0,0-3.444-.8l-37.352,23.256a2.5,2.5,0,0,0-.8,3.444l9.26,14.873a2.506,2.506,0,0,0,2.778,1.1,79.185,79.185,0,0,0,21.27-9.172Z" transform="translate(-335.329 166)" fill="#125eab"/>
    <path id="Path_18-2" data-name="Path 18" d="M756.052,430.807l1.549,2.487,24.626-5.5a2.016,2.016,0,0,0,1.153-.741l14.842-19.336-1.422-2.284a2.006,2.006,0,0,0-2.755-.641l-37.352,23.256a2.006,2.006,0,0,0-.641,2.755Z" transform="translate(-343.473 166)" opacity="0.2"/>
    <path id="Path_19-2" data-name="Path 19" d="M788.382,424.57a2.5,2.5,0,0,0,.662-.6l22.181-28.894a2.5,2.5,0,0,0-2.546-3.958l-33.039,7.641a2.526,2.526,0,0,0-1.362.84l-24.09,29.061a2.5,2.5,0,0,0,2.47,4.035l34.949-7.807a2.5,2.5,0,0,0,.776-.318Z" transform="translate(-350.854 166)" fill="#125eab"/>
    <path id="Path_20-2" data-name="Path 20" d="M584.465,109.416l.849-.529L577.65,96.578,551.758,112.7l.529.848L577.33,97.955Z" transform="translate(-121.072 464)" fill="#3f3d56"/>
    <circle id="Ellipse_20-2" data-name="Ellipse 20" cx="2" cy="2" r="2" transform="translate(462.346 572)" fill="#3f3d56"/>
    <circle id="Ellipse_21-2" data-name="Ellipse 21" cx="43.067" cy="43.067" r="43.067" transform="translate(298.205 613.556)" fill="#2f2e41"/>
    <rect id="Rectangle_12-2" data-name="Rectangle 12" width="13.084" height="23.442" transform="translate(310.355 705.783) rotate(-148.569)" fill="#2f2e41"/>
    <rect id="Rectangle_13-2" data-name="Rectangle 13" width="13.084" height="23.442" transform="translate(332.683 719.429) rotate(-148.569)" fill="#2f2e41"/>
    <ellipse id="Ellipse_22-2" data-name="Ellipse 22" cx="10.903" cy="4.089" rx="10.903" ry="4.089" transform="translate(315.524 714.054) rotate(-148.569)" fill="#2f2e41"/>
    <ellipse id="Ellipse_23-2" data-name="Ellipse 23" cx="10.903" cy="4.089" rx="10.903" ry="4.089" transform="translate(338.136 727.234) rotate(-148.569)" fill="#2f2e41"/>
    <ellipse id="Ellipse_24-2" data-name="Ellipse 24" cx="7.501" cy="23.892" rx="7.501" ry="23.892" transform="matrix(-0.707, -0.707, 0.707, -0.707, 370.795, 654.708)" fill="#2f2e41"/>
    <ellipse id="Ellipse_25-2" data-name="Ellipse 25" cx="7.501" cy="23.892" rx="7.501" ry="23.892" transform="translate(289.206 697.407) rotate(-145.225)" fill="#2f2e41"/>
    <circle id="Ellipse_26-2" data-name="Ellipse 26" cx="14.719" cy="14.719" r="14.719" transform="translate(339.741 629.801)" fill="#fff"/>
    <circle id="Ellipse_27-2" data-name="Ellipse 27" cx="4.906" cy="4.906" r="4.906" transform="translate(354.554 634.614)" fill="#3f3d56"/>
    <path id="Path_21-2" data-name="Path 21" d="M863.631,503.073c2.791,4.573-.928,10.76-8.306,13.818s-15.623,1.831-18.414-2.742h0l-.01-.016c-2.784-4.576,2.623-8,10-11.054S860.847,498.5,863.631,503.073Z" transform="translate(-490.216 166)" fill="#fff"/>
    <path id="Path_22-2" data-name="Path 22" d="M916.852,436.547c-3.846-15.487-20.821-24.6-37.915-20.356s-27.834,20.24-23.989,35.727,16.6,15.537,33.7,11.292S920.7,452.034,916.852,436.547Z" transform="translate(-561.129 166)" fill="#e6e6e6"/>
    <path id="Path_23-2" data-name="Path 23" d="M195.5,602h809a1,1,0,0,0,0-2h-809a1,1,0,0,0,0,2Z" transform="translate(10.5 166)" fill="#cbcbcb"/>
    <g id="Group_8" data-name="Group 8" transform="translate(220.665 -894)">
      <g id="Group_7" data-name="Group 7">
        <path id="Path_438-3" data-name="Path 438" d="M217.772,566.343a17.584,17.584,0,0,0,16.98-2.991c5.947-4.992,7.812-13.214,9.329-20.828L248.569,520l-9.4,6.469c-6.757,4.652-13.665,9.454-18.344,16.192s-6.719,15.938-2.961,23.229" transform="translate(299.5 1058)" fill="#e6e6e6"/>
        <path id="Path_439-3" data-name="Path 439" d="M219.222,595.18c-1.183-8.615-2.4-17.342-1.568-26.049.737-7.733,3.1-15.285,7.9-21.48a35.734,35.734,0,0,1,9.168-8.308c.917-.578,1.76.874.848,1.45a33.971,33.971,0,0,0-13.438,16.213c-2.925,7.441-3.4,15.552-2.891,23.456.3,4.78.952,9.528,1.6,14.271a.87.87,0,0,1-.587,1.033.845.845,0,0,1-1.033-.587Z" transform="translate(299.5 1058)" fill="#f2f2f2"/>
        <path id="Path_442-3" data-name="Path 442" d="M227.734,581.356a12.944,12.944,0,0,0,11.279,5.823c5.711-.271,10.47-4.255,14.754-8.039l12.673-11.19-8.387-.4c-6.032-.289-12.219-.56-17.964,1.3s-11.044,6.337-12.094,12.284" transform="translate(299.5 1058)" fill="#e6e6e6"/>
        <path id="Path_443-3" data-name="Path 443" d="M215.88,600.133c5.693-10.073,12.3-21.268,24.1-24.847a26.888,26.888,0,0,1,10.134-1.046c1.076.093.807,1.751-.267,1.659a24.979,24.979,0,0,0-16.173,4.279,42.038,42.038,0,0,0-11.117,12c-1.841,2.8-3.49,5.726-5.139,8.644C216.888,601.75,215.347,601.076,215.88,600.133Z" transform="translate(299.5 1058)" fill="#f2f2f2"/>
      </g>
    </g>
    <g id="Group_9" data-name="Group 9" transform="translate(1135.173 684)">
      <g id="Group_7-2" data-name="Group 7" transform="translate(0)">
        <path id="Path_438-4" data-name="Path 438" d="M246.715,566.343a17.584,17.584,0,0,1-16.98-2.991c-5.947-4.992-7.812-13.214-9.329-20.828L215.918,520l9.4,6.469c6.757,4.652,13.665,9.454,18.343,16.192s6.719,15.938,2.961,23.229" transform="translate(-198.047 -520)" fill="#e6e6e6"/>
        <path id="Path_439-4" data-name="Path 439" d="M234.12,595.18c1.183-8.615,2.4-17.342,1.568-26.049-.737-7.733-3.1-15.285-7.9-21.48a35.734,35.734,0,0,0-9.168-8.308c-.917-.578-1.76.874-.848,1.45a33.971,33.971,0,0,1,13.438,16.213c2.925,7.441,3.4,15.552,2.891,23.456-.3,4.78-.952,9.528-1.6,14.271a.87.87,0,0,0,.587,1.033.845.845,0,0,0,1.033-.587Z" transform="translate(-186.902 -520)" fill="#f2f2f2"/>
        <path id="Path_442-4" data-name="Path 442" d="M266.44,581.356a12.944,12.944,0,0,1-11.279,5.823c-5.711-.271-10.47-4.255-14.754-8.039l-12.673-11.19,8.387-.4c6.032-.289,12.219-.56,17.964,1.3s11.043,6.337,12.094,12.284" transform="translate(-227.734 -520)" fill="#e6e6e6"/>
        <path id="Path_443-4" data-name="Path 443" d="M250.684,600.133c-5.693-10.073-12.3-21.268-24.1-24.847a26.888,26.888,0,0,0-10.134-1.046c-1.076.093-.807,1.751.267,1.659a24.979,24.979,0,0,1,16.173,4.279,42.038,42.038,0,0,1,11.117,12c1.841,2.8,3.49,5.726,5.139,8.644C249.676,601.75,251.217,601.076,250.684,600.133Z" transform="translate(-200.124 -520)" fill="#f2f2f2"/>
      </g>
    </g>
  </g>
</svg>
